<svg version="1" xmlns="http://www.w3.org/2000/svg" width="1365.333" height="1365.333" viewBox="0 0 1024.000000 1024.000000"><path d="M474 1.1c-4.7.5-16.1 1.8-25.5 3-136.8 16.6-263.6 89.7-347.7 200.4-40.5 53.4-71 116.1-87.7 180.5-5 19-6.3 25.4-10.1 47.8l-3 17.7v129.6l2.6 15.7C17.7 688.1 55.9 771.4 115.9 843c13.4 16 40 43 56.4 57.2 92.7 80 210.9 123.7 334.9 123.8 27.8 0 33.7-.4 65.3-4.1 145.9-17.3 282.3-101.7 365.2-226.1 9.2-13.6 16.6-25.7 22.3-36.3 1.8-3.3 4.7-8.7 6.6-12 4.6-8.4 14.7-30.6 20.6-45.5 17.1-42.9 29-90.1 33.8-134.5.6-5.5 1.3-11.8 1.6-14 .3-2.2.8-18.3 1.1-35.7.5-32.6-.1-43.2-4.3-76.3-15.3-119.7-78.6-236.1-171.9-316.1-27-23.2-51.3-40.1-85.5-59.7-8.7-4.9-35.7-18-47.9-23.1-37.3-15.7-76.1-27-114.6-33.5-10.9-1.8-20-2.9-49.7-6.1-11.4-1.2-63.6-1.1-75.8.1zM541 13c157.3 9.5 296.4 87.8 384.3 216.1 64.5 94.2 94.7 209.5 84.6 322.9-13.6 153.6-95.8 291.1-224.9 376.3-169 111.5-388.1 111.2-556-.6C137.3 866.6 67.2 774 32.8 668.5c-12-37.1-19.8-76.8-22.9-117.4-1.5-20.2-.6-70.9 1.5-89.1 9.8-82.5 35.7-154.7 79.3-221.5 19.5-29.8 37.6-51.9 65.3-79.6 20.4-20.4 34.3-32.6 53.5-47.1C304.7 42.3 424.1 5.9 541 13z"/><path d="M522 72c0 3.9.1 4 3.5 4s3.5-.1 3.5-4-.1-4-3.5-4-3.5.1-3.5 4zM534.7 68.6c-.4.4-.7 2.2-.7 4.1 0 3.2.1 3.3 4.1 3.3h4l-.3-3.8c-.3-3.3-.6-3.7-3.3-4-1.7-.2-3.4 0-3.8.4zM495.9 80.7l-3.6.4-2.8 10.7c-5 19.5-6.1 23.3-6.9 23.5-.4.1-4-6.8-7.9-15.3l-7.3-15.5-6.3-.3c-6.1-.3-6.3-.3-5.5 2 .4 1.3 5.3 11.8 10.9 23.4l10.2 21.1 6.4-.5c3.5-.2 6.9-.9 7.6-1.6 1-1 13.3-44.7 13.3-47.4 0-1.2-1-1.2-8.1-.5zM524.2 82.7c-1.9 3.6-18.2 43.2-18.2 44.1 0 1.1 9.6 2.1 11.1 1.2.4-.3 1.5-2.2 2.4-4.3 1.5-3.6 1.6-3.7 6.9-3.7 2.9 0 7.4.3 9.9.6 4.1.6 4.7 1 5.3 3.8.3 1.7 1.1 3.7 1.6 4.3 1.1 1.4 11.8 1.8 11.8.5 0-.4-3.5-11.3-7.8-24.2l-7.7-23.5-7.2-.3c-6.1-.2-7.3 0-8.1 1.5zm10.7 19.9c1.2 3.9 2.1 7.6 2.1 8.3 0 .8-1.7.9-5.7.5-3.2-.4-6-.8-6.2-1-.2-.2 1.1-4 2.9-8.4 1.8-4.5 3.6-7.8 4-7.3.5.4 1.8 4 2.9 7.9zM577.3 86c-7.1 1.7-11.3 6.9-11.3 14.2 0 5.8 2.9 8.9 12.6 13.8 6.9 3.5 9 5 9.2 6.8.9 6.2-6.9 7-17.4 1.8-3.8-1.9-7-3.3-7.2-3.1-.3.2-.7 2.4-.9 4.9-.5 4.1-.3 4.5 2.3 5.9 10 5 23.8 6.6 28.8 3.4 5.6-3.7 8.6-12.3 6.2-18-1.9-4.5-4.1-6.2-12.7-9.7-8-3.3-10-5-9.2-8.1 1.1-4 9.7-3.8 18.2.4l5 2.6.7-3.4c1-5.7.3-6.8-6.1-9.1-7.3-2.6-13.9-3.5-18.2-2.4zM440.4 86.9c-4.7 1.2-4.9 1.4-8.3 10.6-1.8 4.7-3.5 8.5-3.9 8.5-.4 0-3.7-3-7.4-6.7l-6.7-6.6-6 1.3c-3.4.7-6.1 1.6-6.1 1.9 0 .3 5.1 5.7 11.4 12l11.4 11.4 1.7 8.2c1 4.6 2.1 8.9 2.5 9.5.5.8 2.2.9 5.2.5 7.2-1.1 7.2-1 4.8-11.4-1.2-5.1-2-10-1.7-10.9.3-.9 2.8-7.5 5.6-14.7 2.8-7.1 5.1-13.3 5.1-13.7 0-.9-3.3-.9-7.6.1zM622.6 94.9c-.2.3-2 5.8-3.9 12.1s-4.9 16-6.6 21.4c-1.7 5.5-3 10.4-2.8 10.9.3 1 7.9 3.7 10.3 3.7.6 0 2.1-3.6 3.4-8 1.3-4.4 2.7-8 3.1-8 .4 0 3.4 4.9 6.5 11l5.8 11 6.3 2.1c3.5 1.1 6.7 1.9 7.3 1.7.5-.2-2.7-6.8-7-14.8-4.4-8-7.9-14.8-8-15.2 0-.4 6.1-3.9 13.6-7.9 7.4-3.9 13.2-7.5 12.7-7.9-.4-.4-3.2-1.5-6.2-2.3l-5.4-1.6-10.8 5.5c-6 3-10.9 5.1-10.9 4.7 0-.5.9-3.7 2-7.3 1.1-3.6 2-7 2-7.6 0-1.2-10.8-4.5-11.4-3.5zM385.3 100.8c-2.9.8-5.3 1.8-5.3 2.2 0 .4 2.9 10 6.5 21.3s6.5 21.9 6.5 23.6c0 2.7-2.9 6.2-6.1 7.3-.9.3.6 6.4 2 8.1.4.4 3.5-.6 6.8-2.3 5-2.5 6.6-3.9 8.2-7.4 1.2-2.3 2.1-5.1 2.1-6.2 0-2.4-14.2-48.4-14.9-48.3-.4.1-3 .8-5.8 1.7zM671.4 111.7c.2 1 1.4 8.3 2.6 16.3l2.1 14.5-4 8.8c-2.3 4.8-4.1 8.9-4.1 9.2 0 .4 7.5 4.1 9.7 4.7.7.2 3.2-3.8 5.6-8.8l4.5-9.1 11.8-7.3c17.6-10.8 16.5-9.4 10.5-12.4-2.7-1.4-5.7-2.6-6.4-2.6-.8 0-4.9 2.3-9.2 5.1-4.2 2.7-7.9 4.9-8 4.7-.2-.2-.9-4.6-1.7-9.8l-1.3-9.5-5.5-2.7c-6.6-3.2-7.3-3.3-6.6-1.1zM335.3 120.1c-2.4 1.1-4.3 2.5-4.3 3.2 0 1.3 17.8 40.7 19 42 1.1 1.2 11.3-4.2 10.7-5.6-4.1-10.3-19.3-41.7-20.1-41.6-.6 0-3 .9-5.3 2zM312.4 131l-5.2 3-2.7 10.3c-1.5 5.6-3.1 10.8-3.5 11.6-.5 1-2-.8-5-5.7l-4.2-7.1-4.9 2.7c-2.7 1.5-4.9 3.2-4.9 3.8 0 1.2 21.2 38 22.9 39.7.6.6 2.8-.1 6-1.9l5.1-2.7-3.1-5.6c-1.8-3.1-3.9-6.6-4.7-7.9-1.9-3-1-2.9 13 .8l11.1 2.9 6.4-3.6c3.6-1.9 6.1-3.9 5.6-4.3-.4-.4-7.5-2.4-15.8-4.5-8.2-2.1-15.5-4-16.1-4.4-.8-.4-.1-4.4 2.2-12.6 4.3-15.4 4.7-17.5 3.7-17.5-.4 0-3.1 1.4-5.9 3zM720.4 143.7c-2.7 4.3-8 13-11.9 19.3-3.9 6.3-7.4 12-7.8 12.6-.4.8 4.3 4.2 12.6 9.2 7.3 4.5 14 8.4 14.8 8.7 1 .4 2.2-.7 3.6-3.3l2.2-3.8-7.7-4.7c-4.2-2.6-8.3-5.1-9.1-5.6-1.2-.8.4-4 8.2-16.9 5.3-8.8 9.7-16.3 9.7-16.8s-2.2-2.1-4.9-3.7l-4.9-2.7-4.8 7.7zM266 159.2c-1.4 1.1-3.5 2.8-4.8 3.8-1.9 1.5-2.5 3.7-3.9 13.4-.9 6.4-1.9 11.6-2.3 11.6-.4 0-2.8-2.7-5.4-6l-4.7-6-4.6 3.2c-2.4 1.8-4.6 3.5-4.8 3.8-.2.3 3.5 5.5 8.1 11.5 4.7 6.1 11 14.3 14 18.2 3.1 4 5.9 7.5 6.4 7.8.4.2 2.8-1.1 5.4-3.1l4.6-3.5-1.9-2.7c-1-1.5-3.5-4.7-5.5-7.2-1.9-2.4-3.4-4.6-3.2-4.8.2-.1 6.1.4 13 1.3l12.7 1.7 5.4-4.2c3-2.3 5.5-4.6 5.5-4.9 0-.4-7.4-1.6-16.5-2.8-9.1-1.1-16.8-2.3-17.1-2.6-.3-.3.4-7 1.5-14.9 1.2-8 2.1-14.8 2.1-15.1 0-1.2-1.4-.7-4 1.5zM778.2 159.3c-2.8 3-2.7 3.8.5 6.1l2.6 1.9 2.4-2.8 2.4-2.7-2.2-2.4c-2.8-3-3-3-5.7-.1zM787.8 167.5c-2.3 3.1-2.2 3.6.9 5.9l2.6 1.9 2.3-2.9 2.3-2.8-2.1-2.3c-2.7-2.9-3.9-2.9-6 .2zM753.6 181.8c-11.5 7-21.1 13.2-21.2 13.7-.2.6 1.7 2.5 4.1 4.3l4.4 3.4 3.4-2.1c1.9-1.2 3.9-2.1 4.4-2.1.9 0 11.7 8.1 14.6 10.9.4.4.1 2.4-.8 4.4-.8 2-1.5 4-1.5 4.4.1.9 8.3 7.3 9.3 7.3.7 0 15.7-45.6 15.6-47.4 0-1-10.3-9.7-11.1-9.5-.2 0-9.7 5.8-21.2 12.7zm16.9 9.9c-1.5 4.3-3.1 8.1-3.4 8.5-.6.7-9-5.3-9.4-6.7-.2-.7 14.6-10.5 15.2-9.9.2.2-.9 3.9-2.4 8.1zM489.5 171.7c-59.7 4.8-113.6 23.3-161.8 55.5-73 48.8-124 123.7-143.1 209.8-6 27.3-7 37.8-7 73.5 0 35.5.9 45.3 7 73.5 10.9 50.7 34.4 99.5 68.3 142 9.9 12.4 35.8 38.4 49.1 49.2 41.3 33.4 90.6 57.1 141 67.6 27.8 5.8 36.7 6.7 70 6.7 30.8 0 40.4-.8 62.3-5 63.3-12.2 121.7-42.3 168.1-86.6l10.7-10.2-5.8-6.1c-3.1-3.3-21.5-22.3-40.7-42.1-19.3-19.8-42.7-43.9-52.1-53.5-9.3-9.6-24.4-25.2-33.5-34.5-9.1-9.4-24.5-25.1-34.1-35-9.6-9.9-28-28.8-40.8-41.9l-23.3-23.9 6.4-6.6c3.6-3.6 14.7-15.2 24.9-25.6 17-17.5 67.2-69.1 108.4-111.5 32-32.9 53-54.5 72-73.9l19-19.3-8.8-8.5c-57-54.4-128-86.7-205.2-93.3-11-.9-41.4-1.1-51-.3zM216.5 200l-3.9 4 11.4 11.5 11.5 11.5-6.5-1.9c-3.6-1-11.4-3.3-17.4-5.1l-10.9-3.2-4.9 4.9-4.8 4.8 16.9 16.9 16.9 16.9 4.3-4.1 4.4-4.1-10.7-10.8c-5.9-6-11.1-11.1-11.4-11.5-.4-.4.6-.4 2.2.1s9.4 2.7 17.3 5.1l14.4 4.1 4.9-4.8 4.8-4.8-15.7-15.6c-8.7-8.5-16.5-16-17.4-16.7-1.3-.9-2.2-.5-5.4 2.8zM809.7 231.9C800 240.2 792 247.5 792 248c0 .6 1.6 2.8 3.6 5l3.6 4 5-4.3c8.7-7.4 8.8-7.4 10.9-4.8 2.7 3.3 2.4 7.2-1.2 15.3-2.8 6.4-2.9 7.1-1.5 9.1 2.9 4.2 6.5 8.1 6.9 7.7 1.7-1.9 7.1-16.4 7.5-20.1l.4-4.6 3.7 1c7.4 2 15.4-4.6 15.3-12.5-.1-4.7-3.6-10.3-13-20.7l-5.8-6.3-17.7 15.1zm24 6.4c1.3 2.5 1.3 3.1-.1 5.3-.9 1.3-2.8 2.7-4.2 3-2.1.5-3.3 0-6.2-3l-3.7-3.7 4.5-3.9c4.3-3.6 4.6-3.8 6.4-2.2 1 .9 2.5 3 3.3 4.5zM176.1 244.9c-1.7 2.1-3.1 4.3-3.1 4.7.1 1 34.2 28.2 36.2 28.9 1.2.4 7.8-6.8 7.8-8.4 0-1-35.6-29.1-36.8-29.1-.6 0-2.4 1.8-4.1 3.9zM850.9 267.7l-6.5 14.8-7.7 5.1c-4.2 2.8-8 5.3-8.3 5.7-1.1 1 5.7 10.8 7 10 .6-.4 4.4-2.8 8.4-5.5l7.3-4.8h16.5c9 0 16.4-.2 16.4-.5s-1.5-2.8-3.2-5.5l-3.3-5h-10.2c-5.7 0-10.3-.2-10.3-.4s1.8-4.3 4-9.2l4.1-8.7-3.3-5.4c-1.8-2.9-3.5-5.3-3.8-5.3-.3 0-3.5 6.6-7.1 14.7zM149.2 282.7l-3.1 4.7 19.2 12.8c10.6 7 19.7 12.8 20.3 12.8 1.1 0 18.4-25.3 18.4-26.9 0-1.1-5.3-5.1-6.7-5.1-.4 0-3.3 3.8-6.3 8.5s-5.8 8.5-6.1 8.5c-.3 0-7.4-4.5-15.8-10s-15.6-10-16-10c-.5 0-2.2 2.1-3.9 4.7z"/><path d="M758.5 433.6c-15.9 3.5-29.4 11.2-40.7 23.3-8.8 9.4-14 17.9-17.4 28.6-13.6 42.6 11.4 87.3 55.1 98.6 10.3 2.7 27.9 2.9 38 .4 26.3-6.3 48.5-26.6 56.6-51.9 13.3-41-9.9-84.1-52.6-97.6-9.3-3-28.9-3.7-39-1.4zM841.9 717c-8.2 4.3-14.9 15.1-14.9 24.1 0 12.3 13 24.2 26.5 24.3 6.9 0 10.3-1.5 15.7-7 14.1-14.1 10.3-32.9-8.3-41.4-5.7-2.5-14.2-2.6-19 0zm16.8 13.2c8 4.8 10.7 11.5 7.2 17.7-3.3 6-8.5 7.6-15.4 4.7-12-5.1-17-16.1-10.1-22.5 4.6-4.3 11.1-4.3 18.3.1zM175.1 744c-19.5 13.9-21.6 14.7-26.5 10.9l-2.6-2-3 2.1c-1.6 1.2-3 2.7-3 3.4 0 .6 2 3.1 4.4 5.5 3.5 3.5 5.3 4.4 8.9 4.8 2.5.3 5.9.1 7.6-.5 3.9-1.4 40.1-27 40.1-28.4 0-1.3-5.9-8.8-6.9-8.8-.4 0-9 5.8-19 13zM201.8 743.6c-.3.5-2.5 7.5-4.8 15.6l-4.3 14.8-7.3 6.1c-4.1 3.4-7.4 6.6-7.4 7.1s1.7 2.7 3.8 4.9l3.7 4 7.6-6.4 7.5-6.4 13.4-1.6c7.3-.9 13.5-1.6 13.6-1.4.1.1-3.8 9.7-8.8 21.2l-9 21 5.4 4.7c2.9 2.6 5.6 4.8 6.1 4.8.4 0 10.7-5 22.8-11.1l22.2-11-3.9-4c-2.1-2.1-4.4-3.9-5.2-3.9-.7 0-8.1 3.4-16.3 7.6-8.2 4.2-15.2 7.4-15.5 7.2-.2-.3 2.7-7.8 6.7-16.8l7.1-16.2-7.5-7.5-7.5-7.5-7 1.1c-3.9.6-8.2 1.1-9.6 1.1h-2.5l1.4-4.8c.8-2.6 2.1-6.8 2.9-9.4l1.5-4.7-4.3-4.8c-2.3-2.5-4.5-4.2-4.8-3.7zM805.8 762.6c-7.6 9-13.8 16.8-13.8 17.3s1.4 2 3.2 3.2l3.2 2.3 5.2-5.9 5.2-5.8 14.8 12.4 14.7 12.3 3.8-4.4c2.2-2.5 3.9-4.7 3.8-5 0-.4-14.4-12.7-26.6-22.7l-2.7-2.2 4.7-5.4c2.6-3.1 4.7-5.9 4.7-6.4 0-.9-3.5-4.5-5.5-5.5-.5-.3-7.2 6.8-14.7 15.8zM784.4 786.2c-6.6 4.4-13.1 11.4-14.5 15.5-2.8 8.5 4.1 18.3 13 18.3 1.7 0 6.4-1.8 10.6-4 8.4-4.4 11.9-5 13.5-2.1 2.3 4.3-4.2 11.6-13.2 14.9-2.7.9-4.8 1.9-4.8 2.2 0 .4 1.5 2.1 3.4 3.9l3.4 3.3 5.4-2.8c2.9-1.6 7.6-5.2 10.5-8.1 8-8.2 9.2-14.8 3.7-22.1-3.3-4.2-8.5-6.5-12.8-5.7-1.7.4-6.6 2.7-10.8 5.2-6.4 3.7-8 4.2-9.7 3.3-5-2.6-.9-9.8 8.4-14.6 3-1.6 5.5-3.1 5.5-3.5 0-.3-1.5-2-3.3-3.7l-3.3-3.2-5 3.2zM276.4 805.5c-1.6 2.4-1.6 2.7.1 4.5 2.4 2.7 4 2.5 6.5-.7l2.1-2.7-2.3-1.8c-3.1-2.4-4.5-2.2-6.4.7zM287.1 812.6c-2.7 3.4-2.6 3.8.4 5.8 3.1 2.1 3 2.1 5.4-1.3l2.1-2.9-2.9-2.1-2.9-2.1-2.1 2.6zM753 813.9l-4.4 3.9 14.4 17.8c7.9 9.9 14.5 18.1 14.6 18.2.6.8 4.1-1 7.2-3.7l3.4-2.9-14.7-18.4c-8.1-10-15-18.4-15.3-18.5-.4-.1-2.7 1.5-5.2 3.6zM253.4 827.6c-10.9 7-20.4 13.2-21.1 13.8-.9.8-.1 1.9 3.4 4.5l4.5 3.5 4.2-2.4 4.3-2.3 7.6 5.7 7.6 5.7-1.5 4.2-1.5 4.2 3.3 2.8c6.6 5.7 6.4 5.8 9.7-5 6.8-22.2 11.1-36.8 11.1-38 0-1.1-9.9-9.3-11.2-9.3-.3 0-9.5 5.7-20.4 12.6zm16.1 11.4c-2.9 8.9-2.8 8.8-9.5 3.1-1.9-1.6-3.3-3.1-3-3.4 3.2-2.8 14.6-9.5 14.8-8.7.2.5-.8 4.6-2.3 9zM735 828.6c-4.7 2-22 13.4-22 14.5 0 .7 23.3 35.9 25.7 38.9.6.6 7-3 8.8-5 1.5-1.6 1.3-2.2-2.4-7.5-2.3-3.2-4.1-6.3-4.1-7 0-.6 2.7-3 6.1-5.4 9.7-6.9 12-14.5 6.9-22.9-4-6.6-11.6-8.8-19-5.6zm6.8 11.1c4 3.5 3.8 6.1-.8 10.4-2.2 2.1-4.6 3.9-5.3 3.9-1 0-7.7-9.1-7.7-10.4 0-.9 8.5-5.6 10.1-5.6.9 0 2.6.8 3.7 1.7zM297.2 840.7c-5.8 4.7-7.8 12.3-4.8 18.1.8 1.5 4 5.2 7 8.2 5.8 5.6 6.5 7.4 4.3 10.5-1.1 1.4-2.1 1.6-5.2 1.1-3-.6-5.4-2.3-10.3-7.3-3.5-3.5-6.5-6.3-6.6-6.1-.1.1-1.3 2.1-2.6 4.2l-2.4 3.9 5.6 5.2c7.3 6.9 14.7 10.5 21.2 10.5 4.5 0 5.3-.4 9.1-4.4 7.6-7.8 6.7-13.3-3.5-23.5-7.1-7-8-8.7-5.8-10.9 3.1-3.1 11.2.3 17.5 7.5l3.1 3.7 2.1-3.5c1.2-1.9 2.1-4 2.1-4.8 0-1.7-3.9-5.2-11-9.9-6.8-4.4-15.9-5.6-19.8-2.5zM691.3 854c-16.7 5.9-22.6 19.7-14.9 34.7 3.1 6.2 10.6 13 15.3 13.9 12.6 2.4 28.3-6.5 31.3-17.7 3-10.9-4.5-26.1-15.2-30.9-5.4-2.4-9.8-2.5-16.5 0zm9.1 9.4c4.2 1.8 8 6.7 10.1 13.3 1.4 4.3 1.5 5.8.5 8.8-2.2 6.7-10.3 9.4-16.6 5.6-3.6-2.2-9.4-12.8-9.4-17.3 0-4.3 2.5-8.3 6.2-10.1 4.1-2 5-2.1 9.2-.3zM336.1 858.2c-.5 1.3-4.8 10.8-9.5 21.2-4.7 10.4-8.6 19.3-8.6 19.6 0 .7 9.1 5 10.4 5 .4 0 2.4-3.7 4.5-8.3l3.8-8.2 1.2 3c.7 1.6 2.8 7.2 4.8 12.4l3.6 9.3 6.5 2.9c3.6 1.6 6.7 2.8 6.9 2.6.2-.3-2.4-7.5-5.8-16.2-3.4-8.6-5.7-16-5.3-16.5 1.3-1.2 24.4-9.3 25-8.8.8.9 7.6 25.2 7.6 27.4 0 1.2-1.2 5.8-2.7 10.4-1.5 4.5-2.3 8.5-1.9 9 .5.4 3 1.4 5.6 2.3 5.6 1.9 5.2 2.4 8.8-9.7l2.4-7.9 12.9-10.4 12.9-10.3-3.3-1.4c-8.4-3.4-9.2-3.3-17.1 3.3-3.9 3.4-7.5 5.8-7.8 5.4-.4-.5-1.7-4.7-3-9.5l-2.3-8.7-5.1-1.7c-2.8-.9-7.5-2.7-10.5-4l-5.3-2.4-11 4c-6.1 2.3-11.2 3.9-11.4 3.7-.2-.2.9-3.4 2.6-7 1.6-3.7 3-7.1 3-7.6 0-.7-8.9-5.1-10.5-5.1-.3 0-.9 1-1.4 2.2zM655 870.9c-2.5 1-4.6 2.5-4.8 3.3-.2 1.1 14.7 40.1 16.4 42.9.3.6 9.6-2.5 11.3-3.7.5-.4-17.2-44.4-17.8-44.3-.3 0-2.6.8-5.1 1.8zM465.7 885.2c-.6 4.3-.2 4.8 3.7 4.8 3.1 0 3.4-.3 3.8-3.5.5-4.3.3-4.5-3.8-4.5-2.8 0-3.2.4-3.7 3.2zM617.8 883.6c-2.7.8-4.8 1.8-4.8 2.2 0 .4 3.1 10.6 6.9 22.7 4.7 14.8 7.4 22 8.3 21.9 2.4-.3 29.3-8.6 30.1-9.4 1.3-1.1-1.2-9.3-2.6-8.7-7.8 2.9-18.9 5.8-19.6 5.1-.7-.7-6.9-20.2-10.3-32.2-1-3.6-1.4-3.7-8-1.6zM478.6 885.2c-1.3 5-.8 5.8 3.4 5.8 3.9 0 4-.1 4-3.4 0-2.2-.6-3.6-1.6-4-3.1-1.2-5.2-.6-5.8 1.6zM604.3 887.3l-5.2 1-3.7 9.4-3.6 9.5-7.3-7.2-7.2-7.2-5.8 1.1c-3.2.6-6 1.3-6.3 1.5-.2.3 4.8 5.8 11.1 12.3l11.5 11.8 1.6 8.5c1 4.7 1.9 9 2.1 9.6.4 1.4 12.1-.8 11.9-2.2-.1-.5-.9-5-1.9-9.9l-1.7-9.1 6.1-14.7c3.4-8.1 6.1-14.9 6.1-15.2 0-.6-1.1-.5-7.7.8zM420 887.2c0 .2-2.2 10.6-4.9 23.1-3.1 14.9-4.4 23-3.7 23.2 3.1 1.1 31.8 6.7 32.1 6.3.2-.2.7-2.2 1.1-4.5l.6-4.1-6.8-1.5c-3.8-.8-8.4-1.8-10.1-2.2-2.1-.4-3.3-1.3-3.3-2.3 0-.8 1.6-9.2 3.6-18.5 1.9-9.3 3.3-17.1 3-17.4-1-1.1-11.5-2.9-11.6-2.1zM457.1 917.7l-11.3 22.8 2.9.6c1.5.4 4.4.7 6.3.8 3.2.1 3.7-.3 5.2-4l1.7-4.1 6.3.6c13.8 1.5 13.5 1.3 14.2 5.6.3 2.1.9 4.1 1.4 4.3.4.3 3.2.8 6.4 1.1l5.6.7-6.2-24c-3.4-13.2-6.6-24.5-7.1-25-.6-.4-3.9-1.1-7.5-1.5l-6.6-.6-11.3 22.7zm19.4-2.5c.9 4 1.8 8.1 2.1 9 .5 1.6-.2 1.8-4.8 1.8-2.9 0-5.8-.4-6.4-.8-.7-.5.2-3.5 2.8-9 2.1-4.5 4.1-8.2 4.3-8.2.2 0 1.1 3.3 2 7.2zM532.8 913l-.3 16-8.5-15.2-8.6-15.3-7.3-.3-7.4-.3.6 9.8c.4 5.4.7 16.2.7 24V946h12.3l-.6-16.1c-.3-8.9-.2-15.8.3-15.3.4.5 4.5 7.5 9 15.6l8.2 14.8H545v-17.3c0-9.4-.3-20.2-.7-24l-.6-6.7H533l-.2 16z"/></svg>